<svg xmlns="http://www.w3.org/2000/svg" viewBox="0 0 148.3 75.93"><path d="m148.3 65.78-5.42-9.75-.49.1-24.1 5.3-14.75-22.62-17.7-2.95-32.43-35.86-6.54 5.31-23.48 19.25-11.31 19.67-.27-.03s-.71-.08-.71-.08l-11.1-1.19c0 .24.02.48.03.73 0 .3.02.61.04.91h0c.6 11.29 3.75 21.92 8.89 31.36h2.04c-5.23-9.33-8.45-19.89-9.08-31.13l10.87 1.35 11.98-20.55 27.24-22.13-2.05 8.66-28.02 30 1.34 1.22 25.83-27.66-4.64 19.59-24.22 25.58 1.34 1.23 22.05-23.3-5.48 23.12-13.26 14.01h2.5l12.29-12.99 6.26-1.95-3.56 14.93h1.88l4.19-17.6-8.18 2.54 11.35-47.87.02-.08 2.35-9.92 13.69 15.26 1.32 1.48 15.05 16.78-11.21 12.2-1.24 1.36-5.54 6.04 1.35 1.2 5.37-5.86 1.24-1.34 11.6-12.64 15.6 2.38-13.21 18.81-1.1 1.56-4.32 6.14v.02l-9.04 9.54h2.49l6.76-7.15 5.75 7.15h2.34l-6.82-8.47 4.72-6.73 1.13-1.6 12.87-18.34 5.43 8.03-10.23 10.8-1.78 1.88-.89.94 1.34 1.23 2.19-2.31 1.98-2.09 8.43-8.9 2.93 4.36 1.02 1.49 1.87 2.78-8.19 8.65 1.33 1.23 7.9-8.34 2.73 4.04 3.14 3.56-7.36 7.78h2.49l6.07-6.42 5.65 6.42h2.42l-11-12.48-.54-.8 22.52-4.66 4.27 7.34c-.04.13-.09.27-.15.41-.03.09-.06.17-.09.26-.62 1.65-1.3 3.26-2.03 4.86-.8 1.73-1.66 3.42-2.59 5.07h2.04c1.51-2.77 2.85-5.64 4-8.6.05-.11.09-.22.13-.33.05-.12.1-.25.14-.36l.15-.38c.06-.15.11-.31.17-.46zm-45.49-26.61h.02l.02.03z" fill-rule="evenodd"></path></svg>